<svg xmlns="http://www.w3.org/2000/svg" viewBox="0 0 88.8 117.21"><defs><style>.cls-1{fill:#d9c9e4;stroke-width:4px;}.cls-1,.cls-3{stroke:#1d1d1b;stroke-miterlimit:10;}.cls-2{fill:#cec0e0;}.cls-3{fill:#4a5058;stroke-width:3px;}.cls-4{font-size:22.64px;fill:#1d1d1b;font-family:PalatinoLinotype-Roman, Palatino Linotype;}</style></defs><g id="Capa_2" data-name="Capa 2"><g id="Capa_1-2" data-name="Capa 1"><rect class="cls-1" x="2" y="2" width="83.9" height="96.97" rx="18.32"/><path class="cls-2" d="M4.93,37.1,41.68,97H34.93c-5,0-7.67,0-11.46-.11a32,32,0,0,1-6.32-.53A15.87,15.87,0,0,1,5.25,83.17c-.06-1.89-.16-5-.21-8.79-.14-9.55.12-14.17.11-23.35C5.14,47.85,5.11,43,4.93,37.1Z"/><polygon class="cls-3" points="57.51 83.08 85.9 101.99 62.12 114.86 57.51 83.08"/><text class="cls-4" transform="translate(13.16 42.93) scale(0.96 1)">CLICK<tspan x="0" y="27.17">HERE</tspan></text></g></g></svg>